<svg viewBox="0 0 406 406" fill="none" xmlns="http://www.w3.org/2000/svg">
<path d="M405.966 52.1836C405.966 27.6706 405.966 15.414 398.351 7.79882C390.736 0.183594 378.479 0.183594 353.966 0.183594H52.0352C27.5221 0.183594 15.2656 0.183594 7.65038 7.79882C0.0351562 15.414 0.0351562 27.6706 0.0351562 52.1836V353.815C0.0351562 378.328 0.0351562 390.585 7.65038 398.2C15.2656 405.815 27.5221 405.815 52.0352 405.815H353.966C378.479 405.815 390.736 405.815 398.351 398.2C405.966 390.585 405.966 378.328 405.966 353.815V52.1836Z" fill="white"/>
<path d="M86.998 136.727H113.595V280.627C113.595 294.032 113.029 305.204 111.897 314.141C110.765 323.079 108.643 330.97 105.531 337.816C98.6458 352.838 84.9702 364.96 64.504 374.183L54.0352 358.78C63.4666 350.794 69.6442 345.137 72.5679 341.809C74.9258 339.147 76.9064 336.437 78.5097 333.68C84.1686 324.077 86.998 310.148 86.998 291.893V136.727Z" fill="#116FFF"/>
<path d="M175.842 136.014C180.18 136.014 183.953 137.535 187.16 140.577C190.272 143.905 191.828 147.803 191.828 152.272C191.828 156.836 190.272 160.686 187.16 163.824C183.953 167.056 180.18 168.673 175.842 168.673C171.315 168.673 167.448 167.056 164.241 163.824C161.035 160.781 159.431 156.931 159.431 152.272C159.431 147.708 161.035 143.81 164.241 140.577C167.448 137.535 171.315 136.014 175.842 136.014ZM163.393 193.488H187.726V341.809H163.393V193.488Z" fill="#116FFF"/>
</svg>
