<?xml version="1.0" encoding="UTF-8" standalone="no"?>
<!DOCTYPE svg PUBLIC "-//W3C//DTD SVG 1.1//EN" "http://www.w3.org/Graphics/SVG/1.1/DTD/svg11.dtd">
<svg width="650" height="650" viewBox="0 0 650 650" fill="none" xmlns="http://www.w3.org/2000/svg">
    <path d="M616.001 82.2148C616.001 57.7018 616.001 45.4453 608.385 37.8301C600.77 30.2148 588.514 30.2148 564.001 30.2148H86.002C61.4889 30.2148 49.2324 30.2148 41.6172 37.8301C34.002 45.4453 34.002 57.7018 34.002 82.2148V559.785C34.002 584.298 34.002 596.554 41.6172 604.169C49.2324 611.785 61.4889 611.785 86.002 611.785H564.001C588.514 611.785 600.77 611.785 608.385 604.169C616.001 596.554 616.001 584.298 616.001 559.785V82.2148Z" fill="white"/>
    <path d="M158.684 225.981H196.816V432.296C196.816 451.517 196.005 467.534 194.382 480.347C192.76 493.161 189.717 504.475 185.255 514.29C175.384 535.828 155.777 553.208 126.433 566.431L111.424 544.348C124.946 532.897 133.803 524.787 137.995 520.015C141.375 516.199 144.215 512.314 146.514 508.36C154.627 494.592 158.684 474.622 158.684 448.449V225.981Z" fill="#116FFF"/>
    <path d="M286.063 224.959C292.283 224.959 297.692 227.14 302.289 231.502C306.752 236.273 308.983 241.862 308.983 248.269C308.983 254.812 306.752 260.333 302.289 264.831C297.692 269.466 292.283 271.784 286.063 271.784C279.572 271.784 274.028 269.466 269.431 264.831C264.833 260.469 262.534 254.949 262.534 248.269C262.534 241.726 264.833 236.137 269.431 231.502C274.028 227.14 279.572 224.959 286.063 224.959ZM268.214 307.362H303.101V520.015H268.214V307.362Z" fill="#116FFF"/>
</svg>
